<?xml version="1.0" standalone="no"?>
<!DOCTYPE svg PUBLIC "-//W3C//DTD SVG 20010904//EN"
 "http://www.w3.org/TR/2001/REC-SVG-20010904/DTD/svg10.dtd">
<svg version="1.0" xmlns="http://www.w3.org/2000/svg"
 width="700.000000pt" height="700.000000pt" viewBox="0 0 700.000000 700.000000"
 preserveAspectRatio="xMidYMid meet">
<metadata>
Created by potrace 1.14, written by Peter Selinger 2001-2017
</metadata>
<g transform="translate(0.000000,700.000000) scale(0.100000,-0.100000)"
fill="#000000" stroke="none">
<path d="M5139 6225 c-2 -1 -25 -6 -52 -9 -26 -4 -58 -11 -72 -16 -14 -5 -25
-7 -25 -5 0 6 -106 -34 -170 -63 -83 -38 -198 -120 -272 -194 -61 -62 -208
-217 -348 -368 -18 -19 -90 -96 -160 -170 -70 -74 -141 -150 -158 -167 -16
-18 -34 -33 -39 -33 -8 0 -669 237 -763 274 -46 18 -85 32 -690 251 -283 102
-524 190 -535 195 -11 5 -60 23 -110 40 -49 17 -102 36 -116 41 -36 14 -115
17 -164 7 -90 -19 -123 -47 -497 -421 -414 -414 -420 -422 -419 -559 0 -80 27
-151 77 -207 29 -32 298 -217 872 -600 l831 -554 -139 -138 -139 -138 -303 -3
-303 -3 -56 -28 c-45 -23 -130 -103 -422 -395 -407 -408 -407 -408 -415 -542
-6 -116 39 -212 133 -279 22 -15 263 -117 535 -226 l495 -197 118 -297 c308
-771 297 -747 377 -806 121 -89 283 -88 397 4 26 21 201 193 389 382 257 260
347 356 365 394 24 49 24 56 27 353 l3 302 134 135 c74 74 138 135 142 135 5
0 256 -372 558 -827 374 -561 564 -838 594 -864 65 -57 139 -82 231 -77 127 8
137 15 535 413 195 194 365 371 378 392 45 72 61 150 45 232 -7 38 -64 208
-89 266 -5 11 -72 196 -149 410 -135 373 -155 428 -200 548 -64 174 -354 978
-362 1005 -8 30 -6 36 25 65 31 28 267 250 321 302 12 11 87 81 166 156 80 75
168 158 196 185 163 158 259 337 300 559 11 58 13 251 3 300 -5 28 -11 59 -13
70 -30 164 -131 348 -266 486 -118 121 -339 241 -486 265 -21 3 -43 9 -48 12
-10 6 -261 13 -267 7z m255 -676 c60 -28 127 -94 157 -157 32 -66 35 -186 7
-262 -17 -45 -40 -74 -123 -155 -88 -87 -273 -261 -385 -365 -19 -17 -71 -66
-116 -108 -44 -43 -149 -142 -233 -221 -156 -148 -192 -195 -207 -276 -16 -88
-9 -129 53 -295 25 -69 60 -165 78 -215 50 -140 285 -787 298 -820 6 -16 12
-32 13 -35 0 -3 4 -12 7 -20 6 -15 19 -49 155 -425 44 -121 110 -301 146 -400
l66 -180 -113 -113 -113 -112 -555 831 c-365 549 -568 844 -596 869 -65 57
-128 79 -220 77 -135 -3 -142 -8 -547 -413 -195 -195 -364 -367 -374 -382 -52
-75 -55 -98 -57 -410 l-1 -293 -105 -104 -104 -104 -114 287 c-148 374 -162
404 -211 452 -53 52 -53 52 -422 199 l-318 127 105 104 104 104 293 1 c317 2
338 5 415 62 42 31 689 678 731 730 18 23 32 47 32 55 0 8 5 19 11 25 6 6 13
46 16 89 6 95 -16 166 -74 234 -26 30 -289 211 -870 598 l-833 555 112 113
c77 78 118 112 128 108 8 -4 58 -22 110 -41 52 -18 118 -42 145 -53 28 -10
181 -66 342 -124 160 -58 302 -110 315 -115 22 -10 370 -136 473 -172 28 -9
93 -33 145 -52 490 -179 689 -250 710 -254 49 -10 86 -9 143 4 101 23 98 20
468 414 70 74 141 150 159 169 18 19 88 94 155 165 271 287 281 296 358 321
61 20 180 12 241 -17z"/>
</g>
</svg>
